<svg
  xmlns:dc="http://purl.org/dc/elements/1.1/"
  xmlns:cc="http://creativecommons.org/ns#"
  xmlns:rdf="http://www.w3.org/1999/02/22-rdf-syntax-ns#"
  xmlns:svg="http://www.w3.org/2000/svg"
  xmlns="http://www.w3.org/2000/svg"
  xmlns:xlink="http://www.w3.org/1999/xlink"
  id="datamint-logo-color"
  viewBox="0 284 1024 200"
  height="200px"
  width="1024px"
  version="1.1"
  style="background: #0ec3ad"
>
  <style>
    .text {
      font-style: normal;
      font-weight: 700;
      font-size: 72px;
      line-height: 1;
      font-family: Phenomena;
      font-variant-ligatures: none;
      text-align: center;
      text-anchor: middle;
      fill: rgb(254, 254, 254);
    }
  </style>
  <metadata>
    <rdf:rdf>
      <cc:work rdf:about="">
        <dc:format>image/svg+xml</dc:format>
        <dc:type rdf:resource="http://purl.org/dc/dcmitype/StillImage"></dc:type>
      </cc:work>
    </rdf:rdf>
  </metadata>
  <defs>
    <path id="logo-datamint" style="fill:#fff;" d="M38.1,281.1c1.5-2.1,2.5-5.3,3-9.7c0.6-6,0-9-9.2-42.6c-5.5-19.9-10.8-37.7-11.8-39.4c-1-1.8-3.7-4.7-5.9-6.4
	c-3.5-2.6-8.2-4.1-39.5-12.4c-19.5-5.2-37.5-9.6-40-9.9c-2.6-0.3-6.7,0.2-9.8,1.2c-4.9,1.6-7.5,3.9-33.1,29.7
	c-29.6,29.9-30.9,31.6-31.1,41.1c-0.2,5.4,17.3,71.6,20.8,78.8c3.9,8.2,6.3,9.2,45.4,19.6c19.4,5.1,37.6,9.6,40.4,9.9
	c6.1,0.7,12.3-1.1,16.6-4.6C-10.4,331.5,35.9,284.4,38.1,281.1z M5.3,193.5c3,2.1,3.9,4.8,13.4,39.2c7.2,25.9,9.5,35.4,8.9,37.8
	c-0.4,1.8-2.5,4.9-4.6,7.2c-4.4,4.7-3.9,4.8-20.4,0.3L-9,274.8l-12.4-45.8c-6.9-25.1-12.2-45.8-12-46.1
	C-32.6,182.5,3.5,192.1,5.3,193.5z M-71.2,257.8c-1.3-0.8,1.7-4.2,15.3-17.6c9.2-9.1,17.2-16.8,17.6-17c0.5-0.1,3.9,10.2,7.3,23.2
	c3.6,12.9,6.4,23.6,6.3,23.6C-25.1,270.5-69.7,258.7-71.2,257.8z M-120.3,255c-4.9-18.4-5.8-22.9-4.8-25.2
	c1.6-3.8,51.5-53.8,55-55.1c2.4-0.9,4.3-0.8,11.6,1.1l8.7,2.3l3.9,14l3.9,14.1l-25.5,25.6c-40.6,41-45.5,45.9-46.2,45.8
	C-114,277.6-117,267.4-120.3,255z M-66.6,318.5c-23.5-6.2-36.2-10-37.6-11.2c-1.2-1.1-3-4.4-3.9-7.5l-1.7-5.8l12.4-12.4l12.3-12.3
	l45.9,11.9c25.3,6.5,46,12,46.2,12c0.2,0.1-3.2,3.6-7.4,8.1c-4.4,4.3-11.7,11.7-16.3,16.3c-4.7,4.7-9.8,8.9-11.4,9.4
	C-30.6,327.8-36.8,326.4-66.6,318.5z"/>
  </defs>
  <g>
    <use
      xmlns="http://www.w3.org/2000/svg"
      xmlns:xlink="http://www.w3.org/1999/xlink"
      xlink:href="#logo-datamint"
      href="#logo-datamint"
      src="#logo-datamint"
      x="0"
      y="0"
      width="9.565217"
      height="4.565217"
      transform="translate(357 295) scale(0.35)"
    ></use>
    <g style="font-style:normal;font-weight:700;font-size:72px;line-height:1;font-family:Phenomena;font-variant-ligatures:none;text-align:center;text-anchor:middle" aria-label="DATAMINT">
      <path class="text" d="m 398.897,0.216 h 9.288 c 7.488,0 12.312,-5.472 12.312,-13.032 v -24.768 c 0,-7.56 -4.752,-13.032 -12.312,-13.032 h -9.288 c -1.872,0 -2.952,1.008 -2.952,2.88 v 45.072 c 0,1.872 1.08,2.88 2.952,2.88 z m 3.6,-6.048 v -38.736 h 5.472 c 3.816,0 5.976,2.736 5.976,6.84 v 25.056 c 0,4.104 -2.232,6.84 -5.976,6.84 z" transform="translate(0 314.668) translate(240.4608967391306 37.922000000000004) scale(1.25) translate(-395.945 50.616)"></path>
      <path class="text" d="m 478.46037,-50.4 h -22.10399 c -0.57601,0 -0.93601,0.36 -0.93601,0.936 v 4.104 c 0,0.648 0.36,1.008 0.93601,1.008 h 7.848 v 43.344 c 0,0.648 0.35999,1.008 0.93599,1.008 h 4.536 c 0.648,0 1.008,-0.36 1.008,-1.008 v -43.344 h 7.776 c 0.64801,0 1.008,-0.36 1.008,-1.008 v -4.104 c 0,-0.576 -0.35999,-0.936 -1.008,-0.936 z" transform="translate(0 314.668) translate(407.2095657608696 38.192) scale(1.25) translate(-455.42037 50.4)"></path>
      <path class="text" d="m 484.62087,0 h 4.60801 c 0.57599,0 0.93599,-0.36 0.93599,-1.008 v -15.984 h 11.664 v 15.984 c 0,0.648 0.432,1.008 1.00801,1.008 h 4.536 c 0.64799,0 1.00799,-0.36 1.00799,-1.008 v -36.864 c 0,-7.92 -4.968,-13.248 -12.384,-13.248 -7.416,0 -12.312,5.328 -12.312,13.248 v 36.864 c 0,0.648 0.36,1.008 0.936,1.008 z m 5.544,-22.968 V -38.16 c 0,-4.32 2.16001,-6.84 5.832,-6.84 3.74401,0 5.832,2.52 5.832,6.84 v 15.192 z" transform="translate(0 314.668) translate(473.7901907608696 37.292) scale(1.25) translate(-483.68487 51.12)"></path>
      <path class="text" d="m 544.89725,-51.192 c -3.96,0 -6.552,1.872 -8.496,4.536 -1.944,-2.664 -4.464,-4.536 -8.496,-4.536 -7.272,0 -11.736,5.256 -11.736,13.392 v 36.792 c 0,0.648 0.36,1.008 0.936,1.008 h 4.536 c 0.576,0 0.936,-0.36 0.936,-1.008 v -37.08 c 0,-4.464 1.8,-6.984 5.328,-6.984 3.096,0 5.256,2.52 5.256,6.984 v 37.08 c 0,0.648 0.36,1.008 0.936,1.008 h 4.536 c 0.576,0 0.936,-0.36 0.936,-1.008 v -37.08 c 0,-4.464 2.088,-6.984 5.328,-6.984 3.384,0 5.256,2.52 5.256,6.984 v 37.08 c 0,0.648 0.36,1.008 0.936,1.008 h 4.536 c 0.648,0 1.008,-0.36 1.008,-1.008 V -37.8 c 0,-8.136 -4.536,-13.392 -11.736,-13.392 z" transform="translate(0 314.668) translate(545.6456657608696 37.202) scale(1.25) translate(-516.16925 51.192)"></path>
      <path class="text" d="m 564.83563,-49.464 v 48.456 c 0,0.648 0.35999,1.008 1.00799,1.008 h 4.53601 c 0.576,0 0.93599,-0.36 0.93599,-1.008 v -48.456 c 0,-0.576 -0.35999,-0.936 -0.93599,-0.936 h -4.53601 c -0.648,0 -1.00799,0.36 -1.00799,0.936 z" transform="translate(0 314.668) translate(637.7286407608697 38.192) scale(1.25) translate(-564.83563 50.4)"></path>
      <path class="text" d="m 580.52712,0 h 4.60801 c 0.576,0 0.936,-0.36 0.936,-1.008 v -37.224 c 0,-4.104 2.232,-6.84 5.832,-6.84 3.59999,0 5.832,2.736 5.832,6.84 v 37.224 c 0,0.648 0.43199,1.008 1.00799,1.008 h 4.53601 c 0.648,0 1.008,-0.36 1.008,-1.008 v -36.936 c 0,-7.776 -4.89601,-13.248 -12.384,-13.248 -7.48801,0 -12.312,5.472 -12.312,13.248 v 36.936 c 0,0.648 0.36,1.008 0.93599,1.008 z" transform="translate(0 314.668) translate(687.4230157608696 37.202) scale(1.25) translate(-579.59113 51.192)"></path>
      <path class="text" d="m 630.476,-50.4 h -22.104 c -0.576,0 -0.936,0.36 -0.936,0.936 v 4.104 c 0,0.648 0.36,1.008 0.936,1.008 h 7.848 v 43.344 c 0,0.648 0.36,1.008 0.936,1.008 h 4.536 c 0.648,0 1.008,-0.36 1.008,-1.008 v -43.344 h 7.776 c 0.648,0 1.008,-0.36 1.008,-1.008 v -4.104 c 0,-0.576 -0.36,-0.936 -1.008,-0.936 z" transform="translate(0 314.668) translate(753.4791032608696 38.192) scale(1.25) translate(-607.436 50.4)"></path>
    </g>
    <g style="font-style:normal;font-weight:300;font-size:32px;line-height:1;font-family:'Fira Sans Condensed';font-variant-ligatures:none;text-align:center;text-anchor:middle"></g>
  </g>
</svg>
