<svg version="1.1" id="Layer_1" xmlns="http://www.w3.org/2000/svg" xmlns:xlink="http://www.w3.org/1999/xlink" x="0px" y="0px"
	 viewBox="-149 151 200 200" xml:space="preserve">
<path style="fill:#0EC3AD;" d="M-30,162.8c-2.3-1.2-5.6-1.8-10-1.8c-6,0.1-8.9,1.1-41.2,14.3c-19.1,7.9-36.1,15.3-37.7,16.5
	c-1.7,1.2-4.2,4.2-5.6,6.6c-2.2,3.8-3.1,8.6-7.5,40.7c-2.8,20-5,38.4-5,40.9c0,2.6,1,6.6,2.4,9.6c2.2,4.7,4.8,7,33.5,29.2
	c33.3,25.7,35.1,26.8,44.6,25.9c5.4-0.5,69-25.9,75.7-30.3c7.7-4.9,8.4-7.4,13.9-47.4c2.7-19.9,4.9-38.5,4.9-41.3
	c0-6.1-2.6-12.1-6.6-15.9C25.9,204.8-26.5,164.6-30,162.8z M-113,206c1.7-3.2,4.3-4.5,37.3-18.1c24.8-10.3,34-13.7,36.4-13.4
	c1.8,0.2,5.2,1.9,7.7,3.7c5.2,3.8,5.2,3.3,2.8,20.2l-1.7,11.9l-43.9,17.9c-24.1,9.9-44,17.7-44.3,17.5C-119.3,245-114.1,208-113,206
	z M-39.8,274.1c-0.6,1.4-4.4-1.2-19.3-13c-10.2-8-18.8-15-19-15.4c-0.2-0.5,9.7-5.1,22.1-10.1c12.4-5.1,22.6-9.2,22.7-9.1
	C-32.8,226.8-39.1,272.5-39.8,274.1z M-36.6,323.2c-17.7,7.1-22,8.5-24.4,7.8c-4-1.1-59.7-44.6-61.4-47.9c-1.2-2.3-1.3-4.2-0.3-11.7
	l1.2-8.9l13.4-5.6l13.5-5.6l28.5,22.2c45.6,35.3,51.1,39.6,51.1,40.3C-15,314.2-24.7,318.4-36.6,323.2z M19.9,262.1
	c-3.3,24.1-5.5,37.1-6.5,38.7c-0.9,1.3-4,3.5-7,4.8L0.9,308l-13.8-10.8l-13.7-10.7l6.2-47c3.4-25.9,6.3-47.1,6.3-47.3
	c0.1-0.2,4,2.7,8.9,6.4c4.8,3.8,13,10.2,18.2,14.2c5.2,4.1,10,8.6,10.7,10.2C24.7,225.3,24.1,231.6,19.9,262.1z"/>
</svg>
