<svg
  xmlns:dc="http://purl.org/dc/elements/1.1/"
  xmlns:cc="http://creativecommons.org/ns#"
  xmlns:rdf="http://www.w3.org/1999/02/22-rdf-syntax-ns#"
  xmlns:svg="http://www.w3.org/2000/svg"
  xmlns="http://www.w3.org/2000/svg"
  id="webalorm-logo-color-text"
  viewBox="0 284 1024 200"
  height="200px"
  width="1024px"
  version="1.1"
>
  <style>
    .font {
      font-style: normal;
      font-weight: 500;
      font-size: 72px;
      line-height: 1;
      font-family: &quot;Raleway Medium Alt1&quot;;
      font-variant-ligatures: none;
      text-align: center;
      text-anchor: middle;
      fill: rgb(113, 80, 203);
    }
  </style>
  <metadata id="metadata11">
    <rdf:rdf>
      <cc:work rdf:about="">
        <dc:format>image/svg+xml</dc:format>
        <dc:type rdf:resource="http://purl.org/dc/dcmitype/StillImage"></dc:type>
      </cc:work>
    </rdf:rdf>
  </metadata>
  <defs id="defs-webalorm-text"></defs>
  <g id="logo-group">
    <g id="title" style="font-style:normal;font-weight:500;font-size:72px;line-height:1;font-family:'Raleway Medium Alt1';font-variant-ligatures:none;text-align:center;text-anchor:middle" aria-label="WEBALORM">
      <path id="path13" class="font" d="m 337.1075,77.88 -3.96,-8.712 h -6.12 l 7.128,15.264 z m 32.976,-9 -17.28,43.488 -3.168,6.48 0.504,1.152 h 5.616 l 21.384,-51.12 z m -26.496,21.6 9.288,-21.312 h -6.12 l -19.584,43.2 -17.352,-43.488 h -6.984 l 21.312,51.12 h 5.616 l 10.224,-23.4 6.696,15.552 3.312,-6.408 z" transform="translate(0 284.46999999999997) translate(240.7964874999999 67.58) scale(1.25) translate(-302.8355 -68.88)"></path>
      <path id="path15" class="font" d="m 390.30313,74.64 h 27.57599 v -5.76 h -34.056 v 15.84 h 6.48001 z m -6.48001,39.6 V 120 h 34.704 v -5.76 z m 6.48001,-17.64 h 23.976 v -5.4 h -30.45601 v 16.56 h 6.48001 z" transform="translate(0 284.46999999999997) translate(345.7810124999999 67.58) scale(1.25) translate(-383.82312 -68.88)"></path>
      <path id="path17" class="font" d="m 464.06488,98.616 c -1.728,-2.304 -4.03201,-3.96 -6.91201,-4.824 2.30401,-1.008 4.104,-2.664 5.40001,-4.824 1.296,-2.088 1.94399,-4.464 1.94399,-7.056 0,-1.584 -0.288,-3.096 -0.86399,-4.68 -0.57601,-1.584 -1.368,-2.952 -2.30401,-4.176 -1.008,-1.224 -2.232,-2.232 -3.67199,-3.024 -1.44,-0.72 -3.09601,-1.152 -4.82401,-1.152 h -25.416 v 39.6 h 6.48001 V 74.496 h 16.70399 c 1.008,0 2.016,0.216 2.952,0.648 0.936,0.504 1.728,1.08 2.376,1.8 0.648,0.792 1.152,1.728 1.584,2.736 0.36001,1.08 0.57601,2.232 0.57601,3.384 0,1.224 -0.216,2.304 -0.64801,3.312 -0.432,1.008 -0.936,1.944 -1.656,2.664 -0.71999,0.792 -1.512,1.44 -2.44799,1.872 -1.00801,0.432 -2.08801,0.648 -3.168,0.648 h -9.79201 v 5.256 h 11.808 c 1.15201,0 2.16,0.288 3.168,0.72 0.93601,0.504 1.728,1.152 2.44801,1.944 0.71999,0.864 1.22399,1.8 1.656,2.88 0.43199,1.08 0.64799,2.16 0.64799,3.312 0,1.152 -0.216,2.304 -0.64799,3.312 -0.50401,1.08 -1.08001,2.016 -1.8,2.808 -0.79201,0.792 -1.72801,1.44 -2.664,1.872 -1.00801,0.504 -2.16001,0.72 -3.312,0.72 H 427.41687 V 120 h 24.26401 c 2.01599,0 3.95999,-0.288 5.75999,-0.936 1.80001,-0.576 3.38401,-1.512 4.75201,-2.664 1.36799,-1.152 2.44799,-2.52 3.23999,-4.176 0.792,-1.584 1.22401,-3.384 1.22401,-5.4 0,-3.168 -0.86401,-5.904 -2.592,-8.208 z" transform="translate(0 284.46999999999997) translate(404.0231999999999 67.58) scale(1.25) translate(-427.41687 -68.88)"></path>
      <path id="path19" class="font" d="m 498.49887,75.864 -2.808,7.632 6.48001,16.488 h -12.81601 l -1.944,5.04 h 16.20001 l 6.048,14.976 h 6.91199 z m -2.808,-6.984 h -5.47199 l -20.952,51.12 h 6.62399 l 17.06401,-43.632 z" transform="translate(0 284.46999999999997) translate(460.0857124999999 67.58) scale(1.25) translate(-469.26688 -68.88)"></path>
      <path id="path21" class="font" d="M 523.46375,114.24 V 120 h 34.992 v -5.76 z m 6.48,-45.36 h -6.48 v 38.88 h 6.48 z" transform="translate(0 284.46999999999997) translate(531.5817999999998 67.58) scale(1.25) translate(-523.46375 -68.88)"></path>
      <path id="path23" class="font" d="m 602.05175,97.248 c -0.216,1.512 -0.504,3.024 -1.008,4.464 -0.792,2.448 -1.944,4.608 -3.456,6.48 -1.512,1.872 -3.384,3.456 -5.472,4.608 -2.232,1.152 -4.68,1.728 -7.344,1.728 -2.664,0 -5.04,-0.504 -7.2,-1.656 -2.16,-1.08 -4.032,-2.592 -5.544,-4.464 -1.584,-1.872 -2.736,-3.96 -3.6,-6.408 -0.504,-1.512 -0.864,-3.096 -1.08,-4.752 h -6.552 c 0.216,2.304 0.72,4.608 1.584,6.768 1.08,3.168 2.736,5.904 4.896,8.352 2.088,2.448 4.608,4.392 7.56,5.832 2.952,1.44 6.264,2.16 9.864,2.16 3.456,0 6.624,-0.648 9.576,-2.088 2.952,-1.44 5.472,-3.312 7.632,-5.688 2.16,-2.376 3.816,-5.112 5.04,-8.28 0.864,-2.232 1.44,-4.608 1.728,-7.056 z m -33.624,-10.152 c 0.792,-2.376 1.944,-4.464 3.456,-6.408 1.512,-1.872 3.384,-3.384 5.544,-4.536 2.16,-1.152 4.608,-1.728 7.344,-1.728 2.52,0 4.896,0.576 7.056,1.656 2.16,1.152 3.96,2.592 5.544,4.464 1.584,1.872 2.736,3.96 3.6,6.408 0.432,1.296 0.792,2.664 1.008,3.96 h 6.552 c -0.288,-1.944 -0.792,-3.96 -1.44,-5.832 -1.152,-3.096 -2.808,-5.832 -4.896,-8.352 -2.16,-2.448 -4.68,-4.392 -7.56,-5.904 -2.952,-1.512 -6.264,-2.304 -9.792,-2.304 -3.528,0 -6.696,0.72 -9.648,2.16 -2.952,1.44 -5.472,3.312 -7.632,5.688 -2.16,2.448 -3.888,5.184 -5.112,8.28 -0.792,2.088 -1.368,4.176 -1.584,6.264 h 6.552 c 0.216,-1.224 0.576,-2.52 1.008,-3.816 z" transform="translate(0 284.46999999999997) translate(581.9967999999999 67.12999999999998) scale(1.25) translate(-560.79575 -68.52)"></path>
      <path id="path25" class="font" d="m 644.46312,100.416 c 1.58401,-0.36 3.096,-1.08 4.39201,-2.088 1.29599,-0.936 2.448,-2.088 3.384,-3.456 0.93599,-1.296 1.65599,-2.808 2.16,-4.464 0.504,-1.656 0.792,-3.384 0.792,-5.184 0,-2.016 -0.432,-3.96 -1.152,-5.904 -0.79201,-1.944 -1.872,-3.672 -3.24001,-5.256 -1.368,-1.584 -3.024,-2.808 -4.89599,-3.744 -1.87201,-0.936 -3.96001,-1.44 -6.192,-1.44 H 617.82312 V 120 h 6.48001 v -18.36 h 6.48 l -3.6,-5.76 h -2.88 V 74.64 h 15.048 c 1.22399,0 2.37599,0.288 3.528,0.864 1.15199,0.576 2.08799,1.296 2.952,2.304 0.86399,1.008 1.51199,2.088 2.01599,3.384 0.50401,1.296 0.79201,2.664 0.79201,4.032 0,1.44 -0.216,2.736 -0.64801,4.032 -0.504,1.368 -1.08,2.448 -1.79999,3.456 -0.792,1.008 -1.72801,1.8 -2.80801,2.304 -1.07999,0.576 -2.304,0.864 -3.59999,0.864 h -5.688 l 3.74399,5.76 11.664,18.36 h 7.344 z" transform="translate(0 284.46999999999997) translate(657.0310125 67.58) scale(1.25) translate(-617.82312 -68.88)"></path>
      <path id="path27" class="font" d="M 665.07312,68.88 V 120 h 6.48001 V 80.472 l 11.44799,20.448 3.45601,-5.904 -14.544,-26.136 z m 43.92,0 -18.576,33.192 -3.38399,5.904 1.58399,2.808 h 3.67201 L 709.28112,80.472 V 120 h 6.48 V 68.88 Z" transform="translate(0 284.46999999999997) translate(719.8435125 67.58) scale(1.25) translate(-665.07312 -68.88)"></path>
    </g>
    <g id="tagline" style="font-style:oblique;font-weight:600;font-size:32px;line-height:1;font-family:Raleway;font-variant-ligatures:none;text-align:center;text-anchor:middle"></g>
  </g>
</svg>
