<svg version="1.1" id="Layer_1" xmlns="http://www.w3.org/2000/svg" xmlns:xlink="http://www.w3.org/1999/xlink" x="0px" y="0px"
	 viewBox="-149 151 200 200" style="enable-background:new -149 151 200 200;" xml:space="preserve">
<path style="fill:#0EC3AD" d="M38.1,281.1c1.5-2.1,2.5-5.3,3-9.7c0.6-6,0-9-9.2-42.6c-5.5-19.9-10.8-37.7-11.8-39.4c-1-1.8-3.7-4.7-5.9-6.4
	c-3.5-2.6-8.2-4.1-39.5-12.4c-19.5-5.2-37.5-9.6-40-9.9c-2.6-0.3-6.7,0.2-9.8,1.2c-4.9,1.6-7.5,3.9-33.1,29.7
	c-29.6,29.9-30.9,31.6-31.1,41.1c-0.2,5.4,17.3,71.6,20.8,78.8c3.9,8.2,6.3,9.2,45.4,19.6c19.4,5.1,37.6,9.6,40.4,9.9
	c6.1,0.7,12.3-1.1,16.6-4.6C-10.4,331.5,35.9,284.4,38.1,281.1z M5.3,193.5c3,2.1,3.9,4.8,13.4,39.2c7.2,25.9,9.5,35.4,8.9,37.8
	c-0.4,1.8-2.5,4.9-4.6,7.2c-4.4,4.7-3.9,4.8-20.4,0.3L-9,274.8l-12.4-45.8c-6.9-25.1-12.2-45.8-12-46.1
	C-32.6,182.5,3.5,192.1,5.3,193.5z M-71.2,257.8c-1.3-0.8,1.7-4.2,15.3-17.6c9.2-9.1,17.2-16.8,17.6-17c0.5-0.1,3.9,10.2,7.3,23.2
	c3.6,12.9,6.4,23.6,6.3,23.6C-25.1,270.5-69.7,258.7-71.2,257.8z M-120.3,255c-4.9-18.4-5.8-22.9-4.8-25.2
	c1.6-3.8,51.5-53.8,55-55.1c2.4-0.9,4.3-0.8,11.6,1.1l8.7,2.3l3.9,14l3.9,14.1l-25.5,25.6c-40.6,41-45.5,45.9-46.2,45.8
	C-114,277.6-117,267.4-120.3,255z M-66.6,318.5c-23.5-6.2-36.2-10-37.6-11.2c-1.2-1.1-3-4.4-3.9-7.5l-1.7-5.8l12.4-12.4l12.3-12.3
	l45.9,11.9c25.3,6.5,46,12,46.2,12c0.2,0.1-3.2,3.6-7.4,8.1c-4.4,4.3-11.7,11.7-16.3,16.3c-4.7,4.7-9.8,8.9-11.4,9.4
	C-30.6,327.8-36.8,326.4-66.6,318.5z"/>
</svg>
